<svg xmlns="http://www.w3.org/2000/svg" xmlns:xlink="http://www.w3.org/1999/xlink" width="70" height="70" viewBox="0 0 70 70">
  <defs>
    <circle id="quality-icon@3x-a" cx="35" cy="35" r="35"/>
  </defs>
  <g fill="none" fill-rule="evenodd">
    <mask id="quality-icon@3x-b" fill="#fff">
      <use xlink:href="#quality-icon@3x-a"/>
    </mask>
    <use fill="#FFF" fill-opacity=".746" xlink:href="#quality-icon@3x-a"/>
    <g mask="url(#quality-icon@3x-b)">
      <g transform="translate(7 8)">
        <path stroke="#26324D" stroke-width="2" d="M33,33 L50,50"/>
        <circle cx="19.5" cy="19.5" r="19.5" fill="#FFF" stroke="#26324D" stroke-width="2"/>
        <path stroke="#43ABE6" stroke-width="2" d="M30,31.8348018 C28.3803191,30.8986784 25.9228723,30.0176211 22.5159574,30.0176211 L22.5159574,27.3744493 C24.75,25.8876652 26.481383,23.6299559 27.2074468,21.0969163 C27.375,21.1519824 27.4308511,21.2070485 27.5984043,21.2070485 C28.5478723,21.2070485 29.3297872,19.5550661 29.3297872,18.1784141 C29.3297872,16.8017621 28.5478723,15.6453744 27.5425532,15.6453744 C27.4867021,15.6453744 27.375,15.6453744 27.3191489,15.7004405 C26.6489362,8.81718062 23.1861702,7 19.0531915,7 C14.9202128,7 11.4574468,8.8722467 10.787234,15.7004405 L10.731383,15.7004405 C9.78191489,15.7004405 9,16.8568282 9,18.2334802 C9,19.6101322 9.78191489,21.2621145 10.731383,21.2621145 C10.8430851,21.2621145 10.9547872,21.2621145 11.0106383,21.2070485 C11.7367021,23.7400881 13.5797872,25.9977974 15.8138298,27.4295154 L15.8138298,30.0726872 C13.0212766,30.3480176 10.731383,30.8986784 9,32"/>
      </g>
    </g>
  </g>
</svg>
