<svg xmlns="http://www.w3.org/2000/svg" xmlns:xlink="http://www.w3.org/1999/xlink" width="70" height="70" viewBox="0 0 70 70">
  <defs>
    <circle id="staff-processing-icon@3x-a" cx="35" cy="35" r="35"/>
    <path id="staff-processing-icon@3x-c" d="M37,37.9985023 C37,37.4470447 37.4530363,37 37.9970301,37 L44.0029699,37 C44.5536144,37 45,37.4474894 45,37.9985023 L45,49.0014977 C45,49.5529553 44.5469637,50 44.0029699,50 L37.9970302,50 C37.4463856,50 37,49.5525106 37,49.0014977 L37,37.9985023 Z"/>
  </defs>
  <g fill="none" fill-rule="evenodd">
    <mask id="staff-processing-icon@3x-b" fill="#fff">
      <use xlink:href="#staff-processing-icon@3x-a"/>
    </mask>
    <use fill="#FFF" fill-opacity=".746" xlink:href="#staff-processing-icon@3x-a"/>
    <g mask="url(#staff-processing-icon@3x-b)">
      <g transform="translate(13 10)">
        <path fill="#FFF" stroke="#26324D" stroke-width="2" d="M10.2441704 15.7680845C6.31731557 10.1005524 8.73797953.617255978 8.73797953.617255978 8.84556459.280570899 9.16831979 0 9.54486751 0 9.54486751 0 18.9047682.617255978 22.7778305 6.28478814 26.6508928 11.9523203 24.2840214 21.3795025 24.2840214 21.3795025 24.1764363 21.7161876 23.8536811 21.9967585 23.4771334 21.9967585 23.4771334 22.0528727 14.1172328 21.4356167 10.2441704 15.7680845L10.2441704 15.7680845zM12.8931111 31.4563497C10.067203 30.0041019 9.01441377 25.4730889 9.01441377 25.4730889 8.95900381 25.2988191 9.06982373 25.1245494 9.23605362 25.0083696 9.23605362 25.0083696 13.2809808 23.0914025 16.1068889 24.5436503 18.932797 25.9958981 19.9855862 30.5269111 19.9855862 30.5269111 20.0409962 30.7011809 19.9301763 30.8754506 19.7639464 30.9916304 19.7639464 30.9916304 15.7744291 32.9085975 12.8931111 31.4563497L12.8931111 31.4563497z"/>
        <path stroke="#26324D" stroke-width="2" d="M29,18 C24.3417722,21.4697509 21.3544304,26.4875445 21,33"/>
        <path fill="#FFF" stroke="#26324D" stroke-width="2" d="M40.4048443,17.4424938 C36.3079585,20.1803097 29.4429066,18.4756319 29.4429066,18.4756319 C29.16609,18.423975 29,18.1656905 29,17.9074059 C29,17.9074059 29.4429066,11.2953221 33.5951557,8.5575062 C37.7474048,5.81969025 44.5570934,7.5243681 44.5570934,7.5243681 C44.83391,7.57602501 45,7.83430953 45,8.09259406 C44.9446367,8.09259406 44.5017301,14.7046779 40.4048443,17.4424938 L40.4048443,17.4424938 Z"/>
        <use fill="#F2F2F2" xlink:href="#staff-processing-icon@3x-c"/>
        <path stroke="#1F2C4D" stroke-width="2" d="M38,38 L38,38.0003951 C38.0008558,38.000726 38.0004322,38.0010008 38.0001637,38 L38,38 Z M38,38.0003951 L38,49 L43.9998364,49 C43.999927,49.000338 44,49.0008216 44,49.0014977 L44,49 L44.0029699,49 C44.0013889,49 44.0004872,48.9997934 44,48.9996049 L44,38 L38.0001636,38 C38.000073,37.999662 38,37.9991784 38,37.9985023 L38,38 L37.9970301,38 C37.9986111,38 37.9995128,38.0002066 38,38.0003951 Z"/>
        <path fill="#FFF" stroke="#43ABE6" stroke-width="2" d="M36,49.2060855 L36,38.1294767 L32.750212,38.1294765 C31.9239947,37.5249591 26.1955548,34.8321089 26.1955548,34.8321089 C24.3778767,34.0627231 21.5136568,33.7879425 19.5858164,34.1726354 L13.1413216,36.8654856 C11.9295362,37.470003 11.0482377,38.4592133 11.3236435,39.8880726 C11.6541304,41.3169319 13.0311592,42.2511861 14.4632692,41.9214493 L20.6874395,39.2835552 C21.4585756,38.9538185 22.8906856,39.3385113 22.8906856,39.3385113 C22.8906856,39.3385113 25.2591752,40.2727655 24.7634448,41.8115371 C24.488039,42.635879 19.8061411,43.2953525 16.6665153,43.6250893 L14.4081881,43.7350015 C13.6370519,43.7899576 12.0947797,43.3503086 11.4338058,42.9106596 L4.82406747,38.4592133 C3.3919575,37.5249591 1.46411714,37.8546959 0.527737546,39.2835552 C-0.408642053,40.7124145 -0.0781551357,42.635879 1.35395484,43.5701331 L7.96369318,48.0765356 C9.61612777,49.1756581 12.204942,49.9450439 14.2980258,49.9450439 L14.6835938,49.9450439 L16.2258661,50 L27,49.9999997 L36,49.2060855 Z"/>
      </g>
    </g>
  </g>
</svg>
