<svg xmlns="http://www.w3.org/2000/svg" xmlns:xlink="http://www.w3.org/1999/xlink" width="70" height="70" viewBox="0 0 70 70">
  <defs>
    <circle id="timeliness-icon@3x-a" cx="35" cy="35" r="35"/>
  </defs>
  <g fill="none" fill-rule="evenodd">
    <mask id="timeliness-icon@3x-b" fill="#fff">
      <use xlink:href="#timeliness-icon@3x-a"/>
    </mask>
    <use fill="#FFF" fill-opacity=".746" xlink:href="#timeliness-icon@3x-a"/>
    <g mask="url(#timeliness-icon@3x-b)">
      <g transform="translate(1 5)">
        <g transform="translate(6.5 3.9)">
          <circle cx="26" cy="26" r="26" fill="#E0ECF9" stroke="#1F2C4D"/>
          <circle cx="26" cy="26" r="20.8" fill="#FFF" stroke="#1F2C4D"/>
          <rect width="2.6" height="16.9" x="24.7" y="9.1" fill="#F2F2F2" stroke="#43ABE6"/>
          <polygon fill="#F2F2F2" stroke="#43ABE6" points="16.614 34.702 15.123 32.572 24.509 26 26 28.13"/>
          <circle cx="26" cy="26" r="2.6" fill="#1F2C4D"/>
          <circle cx="26" cy="26" r="1.3" fill="#D4D7DA"/>
        </g>
        <g fill="#FFF" transform="translate(37.7 29.9)">
          <path stroke="#43ABE6" d="M6.10506535,17.7811689 L3.41344272,30.121 L10.1884892,25.3477268 L16.9611153,30.121 L14.5454324,17.6310964 C17.5154152,16.0553353 19.565599,12.9643263 19.565599,9.37468925 C19.565599,4.20929114 15.3538874,0 10.1812277,0 C5.01582957,0.00242052395 0.8138,4.20929114 0.8138,9.37468925 C0.8138,13.0780909 2.98500998,16.2562388 6.10506535,17.7811689 L6.10506535,17.7811689 Z"/>
          <path stroke="#1F2C4D" d="M10.1812277,2.60932482 C13.9185167,2.60932482 16.9611153,5.64466185 16.9611153,9.37468925 C16.9611153,13.1095577 13.9185167,16.1448947 10.1812277,16.1448947 C6.44877975,16.1448947 3.42070429,13.1095577 3.42070429,9.37468925 C3.42070429,5.64466185 6.44877975,2.60932482 10.1812277,2.60932482 L10.1812277,2.60932482 Z"/>
        </g>
        <rect width="65" height="65"/>
      </g>
    </g>
  </g>
</svg>
